# xmcd
#
# Track frame offsets:
# 150
# 23970
# 39395
# 60307
# 79112
# 89590
# 114112
# 131527
# 147780
# 171035
# 186832
# 209765
#
# Disc length: 3035 seconds
#
#
# Revision: 3
# Processed by: cddbd v1.5.1PL0 Copyright (c) Steve Scherf et al.
# Submitted via: FreeRIP 2.941 
#
DISCID=9e0bd90c
DTITLE=Muddy Waters - Hoochie Coochie Man
DYEAR=1988
DGENRE=Blues
TTITLE0=Mannish Boy
TTITLE1=I'm Ready
TTITLE2=Champagne and Reefer
TTITLE3=Baby, Please Don't Go
TTITLE4=I Want To Be Loved
TTITLE5=Sad Sad Day
TTITLE6=I'm A King Bee
TTITLE7=The Blues Had A Baby And They Named It Rock and Roll
TTITLE8=She's Nineteen Years Old
TTITLE9=I Can't Be Satisfied
TTITLE10=Screamin' And Cryin'
TTITLE11=I'm Your Hoochie Coochie Man
EXTD=
EXTT0=
EXTT1=
EXTT2=
EXTT3=
EXTT4=
EXTT5=
EXTT6=
EXTT7=
EXTT8=
EXTT9=
EXTT10=
EXTT11=
PLAYORDER=
